<svg width="57" height="110" viewBox="0 0 57 110" fill="none" xmlns="http://www.w3.org/2000/svg">
<g id="Group 3740">
<g id="Group 6">
<path id="Vector" d="M32.9746 0.390039L53.143 0.638776C54.1369 0.655566 55.0836 1.06426 55.7761 1.77564C56.4687 2.48703 56.8508 3.44308 56.8385 4.43463C56.8303 5.269 56.5356 6.07547 56.0035 6.71924L17.3537 54.5522L54.8125 103.29C55.4169 104.074 55.6844 105.065 55.5564 106.046C55.4284 107.027 54.9153 107.918 54.1298 108.521C53.4617 109.03 52.6434 109.303 51.8029 109.298L31.6517 109.049C29.8455 109.023 28.068 108.591 26.4522 107.786C24.8364 106.98 23.4234 105.821 22.3183 104.396L1.53335 77.6128C0.80308 76.6739 0.411766 75.5167 0.423365 74.3284L0.916029 34.3816C0.933739 33.1934 1.35347 32.0462 2.10668 31.1256L23.5119 4.82865C24.6519 3.42542 26.0952 2.29726 27.7338 1.52867C29.3723 0.760071 31.1641 0.370868 32.9746 0.390039Z" fill="#32BFBD"/>
<path id="Vector_2" d="M17.3541 54.5524L0.934905 34.2794C0.960827 33.1189 1.38032 32.0013 2.12449 31.1089L2.49058 30.651L36.339 31.0684L17.3541 54.5524Z" fill="#009F9B" fill-opacity="0.4"/>
</g>
</g>
</svg>
